<svg xmlns="http://www.w3.org/2000/svg" width="70" height="70" viewBox="0 0 70 70">
  <g id="delete_habits" data-name="delete habits" transform="translate(-0.282 0.001)">
    <path id="Union_11" data-name="Union 11" d="M35,0A35,35,0,1,1,0,35,35,35,0,0,1,35,0Z" transform="translate(0.282 -0.001)" fill="#fdecec"/>
    <path id="Icon_material-delete" data-name="Icon material-delete" d="M23.238,32.574H12.1a3.741,3.741,0,0,1-3.612-3.851v-16.2H7.1V5.584h5.357L13.848,4.1h7.645l1.392,1.484h5.357v6.942H26.85v16.2A3.741,3.741,0,0,1,23.238,32.574ZM8.757,10.759H26.585V7.35H22.2L20.807,5.866H14.535L13.143,7.35H8.757Z" transform="translate(17.468 16.663)" fill="#e94444"/>
  </g>
</svg>
