<svg xmlns="http://www.w3.org/2000/svg" xmlns:xlink="http://www.w3.org/1999/xlink" width="97.498" height="89.977" viewBox="0 0 97.498 89.977">
  <defs>
    <linearGradient id="linear-gradient" x1="-0.331" y1="3.088" x2="-0.769" y2="0.5" gradientUnits="objectBoundingBox">
      <stop offset="0"/>
      <stop offset="1" stop-color="#fff"/>
    </linearGradient>
  </defs>
  <path id="Trainer" d="M18006.258,18235.977q-2.669-11.373-5.025-22.814a1.519,1.519,0,0,0-2.975.613q2.285,11.136,4.875,22.2h-18.006a98.6,98.6,0,0,1,.633-33.422,18.884,18.884,0,0,1,15.262-15.053,133.379,133.379,0,0,1,65.227,4.732,103.441,103.441,0,0,1,2.764-11.121,16.338,16.338,0,0,0,10.143-5.57,49.75,49.75,0,0,1-.352,31.227,36.8,36.8,0,0,1-22.885,1.309q-2.848,14-6.168,27.9Zm2.471-72.232a17.746,17.746,0,1,1,17.748,17.748A17.747,17.747,0,0,1,18008.729,18163.744Zm44.719,1.2a13.284,13.284,0,1,1,13.287,13.281A13.287,13.287,0,0,1,18053.447,18164.947Zm8.5,0a4.787,4.787,0,1,0,4.787-4.787A4.784,4.784,0,0,0,18061.947,18164.947Zm3.033,0a1.748,1.748,0,1,1,1.748,1.748A1.751,1.751,0,0,1,18064.98,18164.947Z" transform="translate(-17983.998 -18146)" fill="url(#linear-gradient)"/>
</svg>
