<svg xmlns="http://www.w3.org/2000/svg" width="24.477" height="25.277" viewBox="0 0 24.477 25.277">
  <path id="Bell" d="M12.238,27.973a3.5,3.5,0,0,0,3.5-3.5H8.743A3.5,3.5,0,0,0,12.238,27.973Zm11.768-8.179c-1.056-1.134-3.031-2.84-3.031-8.43a8.628,8.628,0,0,0-6.99-8.477,8.065,8.065,0,0,0-3.494,0A8.628,8.628,0,0,0,3.5,11.364c0,5.589-1.975,7.3-3.031,8.43A1.707,1.707,0,0,0,0,20.98a1.75,1.75,0,0,0,1.754,1.748H22.723a1.75,1.75,0,0,0,1.754-1.748,1.706,1.706,0,0,0-.47-1.186Z" transform="translate(0 -2.696)" fill="#818285"/>
</svg>
