<svg xmlns="http://www.w3.org/2000/svg" width="29.75" height="27.798" viewBox="0 0 29.75 27.798">
  <g id="Chat" transform="translate(-1691 -998.001)">
    <ellipse id="Ellipse_100" data-name="Ellipse 100" cx="8.715" cy="6.798" rx="8.715" ry="6.798" transform="translate(1696.647 1007.867)" fill="#46464d"/>
    <path id="Icon_simple-hipchat" data-name="Icon simple-hipchat" d="M24.464,23.826s.128-.09.331-.245a12.121,12.121,0,0,0,4.955-9.568c0-7.084-6.66-12.832-14.871-12.832S0,6.928,0,14.013,6.658,26.85,14.873,26.85A17.059,17.059,0,0,0,18,26.567l.325-.056a15.482,15.482,0,0,0,7.794,2.467A.8.8,0,0,0,26.8,27.61a15.056,15.056,0,0,1-2.34-3.783Zm-1.812-5.61A9.615,9.615,0,0,1,14.9,21.8h-.057A9.627,9.627,0,0,1,7.09,18.216a1.409,1.409,0,0,1-.338-.712.607.607,0,0,1,.554-.652.066.066,0,0,1,.026,0,.779.779,0,0,1,.407.138,11.326,11.326,0,0,0,7.133,2.549,10.915,10.915,0,0,0,7.14-2.552.571.571,0,0,1,.388-.151.6.6,0,0,1,.6.589,1.638,1.638,0,0,1-.332.8h-.014Z" transform="translate(1691 996.82)" fill="#818285"/>
  </g>
</svg>
