<svg xmlns="http://www.w3.org/2000/svg" width="32.977" height="33.067" viewBox="0 0 32.977 33.067">
  <g id="Check-In" transform="translate(-752.366 -279.816)">
    <g id="Group_13025" data-name="Group 13025" transform="translate(752.366 279.816)">
      <path id="Path_3182" data-name="Path 3182" d="M937.222,440.52l-.734-.105.724-2.714a13.967,13.967,0,0,0,11.961-5.349c3.04-3.845,3.576-8.217,2.156-12.9l2.626-1.007c.168.6.366,1.162.485,1.745,1.263,6.184-.247,11.555-4.894,15.885a16.466,16.466,0,0,1-10.1,4.393,2.727,2.727,0,0,0-.283.053Z" transform="translate(-921.891 -407.453)" fill="#60606a"/>
      <path id="Path_3183" data-name="Path 3183" d="M856.737,354.7a26.733,26.733,0,0,0-9.01-10.971c.158-.012.237-.023.316-.024,1.237-.018,2.475-.043,3.712-.045a1.23,1.23,0,0,1,.6.164,15.857,15.857,0,0,1,4.02,3.4c.062.073.127.144.219.249.084-.133.158-.246.228-.361a61.108,61.108,0,0,1,10.941-13.324,1.016,1.016,0,0,1,.768-.3c.839.02,1.679.007,2.518.007h.391A101.368,101.368,0,0,0,856.737,354.7Z" transform="translate(-840.167 -329.233)" fill="#60606a"/>
      <path id="Path_3184" data-name="Path 3184" d="M883.13,280.948a14.772,14.772,0,0,1,11.027-.121,1.378,1.378,0,0,1,.925,1.464,1.347,1.347,0,0,1-1.131,1.234,1.7,1.7,0,0,1-.816-.086,12.1,12.1,0,0,0-8.333-.127c-.094.032-.282.014-.318-.046C884.023,282.506,883.583,281.733,883.13,280.948Z" transform="translate(-872.763 -279.816)" fill="#60606a"/>
      <path id="Path_3185" data-name="Path 3185" d="M755.227,464.436a13.456,13.456,0,0,0,.838,5.974l-2.458,1.418a16.158,16.158,0,0,1-1.132-8.126Z" transform="translate(-752.366 -449.123)" fill="#60606a"/>
      <path id="Path_3186" data-name="Path 3186" d="M800.119,599.475c.106.117.2.217.29.321a13.154,13.154,0,0,0,4.178,3.232.324.324,0,0,1,.2.467c-.231.792-.434,1.592-.659,2.43a16.4,16.4,0,0,1-6.468-5.031Z" transform="translate(-794.073 -574.132)" fill="#60606a"/>
      <path id="Path_3187" data-name="Path 3187" d="M774.508,324.519l1.43,2.472a15.713,15.713,0,0,0-3.665,4.78l-2.754-.739A18.317,18.317,0,0,1,774.508,324.519Z" transform="translate(-768.16 -320.975)" fill="#60606a"/>
    </g>
  </g>
</svg>
