<svg xmlns="http://www.w3.org/2000/svg" width="36.332" height="36.33" viewBox="0 0 36.332 36.33">
  <g id="Classes" transform="translate(-558.188 -452.808)">
    <path id="Path_3181" data-name="Path 3181" d="M21413.863,21420.1a18.165,18.165,0,0,1,.035-36.33h.02a18.165,18.165,0,0,1-.039,36.33Zm-17.254-18.191a17.3,17.3,0,0,0,17.254,17.3h.016a17.307,17.307,0,0,0,17.289-17.252,17.307,17.307,0,0,1-17.289,17.252h-.016a17.3,17.3,0,0,1-17.254-17.3Zm32.977.037a15.721,15.721,0,0,1-15.707,15.686A15.717,15.717,0,0,0,21429.586,21401.947Zm-30.508-.023a14.82,14.82,0,0,0,14.77,14.82h.031a14.812,14.812,0,0,0,.047-29.623h-.02A14.839,14.839,0,0,0,21399.078,21401.924Zm14.852-15.689a15.715,15.715,0,0,1,15.656,15.713,15.715,15.715,0,0,0-15.656-15.713h-.023a15.728,15.728,0,0,0-15.719,15.689,15.728,15.728,0,0,1,15.719-15.689Z" transform="translate(-20837.535 -20930.965)" fill="#60606a"/>
    <path id="Path_3149" data-name="Path 3149" d="M808.885,552.6a.487.487,0,0,0,.454-.457.5.5,0,0,0-.461-.453.455.455,0,0,0,.007.909Z" transform="translate(-221.633 -85.694)" fill="#60606a"/>
    <path id="Path_3150" data-name="Path 3150" d="M746.158,703.052a.454.454,0,0,0-.449.45.481.481,0,0,0,.458.451.492.492,0,0,0,.453-.459A.463.463,0,0,0,746.158,703.052Z" transform="translate(-165.297 -221.629)" fill="#60606a"/>
    <path id="Path_3151" data-name="Path 3151" d="M657.512,703.056a.467.467,0,0,0-.438.464.492.492,0,0,0,.476.433.476.476,0,0,0,.433-.472A.453.453,0,0,0,657.512,703.056Z" transform="translate(-85.694 -221.632)" fill="#60606a"/>
    <path id="Path_3152" data-name="Path 3152" d="M808.887,640.326a.454.454,0,0,0-.007.908.494.494,0,0,0,.46-.452A.483.483,0,0,0,808.887,640.326Z" transform="translate(-221.635 -165.294)" fill="#60606a"/>
    <path id="Path_3153" data-name="Path 3153" d="M657.5,489.976a.455.455,0,0,0,.478-.419.477.477,0,0,0-.428-.478.485.485,0,0,0-.481.426A.465.465,0,0,0,657.5,489.976Z" transform="translate(-85.693 -29.458)" fill="#60606a"/>
    <path id="Path_3154" data-name="Path 3154" d="M746.153,489.968a.462.462,0,0,0,.459-.443.455.455,0,0,0-.91,0A.454.454,0,0,0,746.153,489.968Z" transform="translate(-165.291 -29.45)" fill="#60606a"/>
    <path id="Path_3155" data-name="Path 3155" d="M594.9,551.708a.491.491,0,0,0-.463.449.483.483,0,0,0,.448.46.455.455,0,0,0,.015-.909Z" transform="translate(-29.439 -85.706)" fill="#60606a"/>
    <path id="Path_3156" data-name="Path 3156" d="M594.926,640.335a.474.474,0,0,0-.474.431.487.487,0,0,0,.432.477.464.464,0,0,0,.467-.435A.456.456,0,0,0,594.926,640.335Z" transform="translate(-29.452 -165.303)" fill="#60606a"/>
    <path id="Path_3157" data-name="Path 3157" d="M701.988,480.36a.441.441,0,1,0,.447.434A.423.423,0,0,0,701.988,480.36Z" transform="translate(-125.645 -21.628)" fill="#60606a"/>
    <path id="Path_3158" data-name="Path 3158" d="M586.629,596.612a.441.441,0,1,0-.441.437A.421.421,0,0,0,586.629,596.612Z" transform="translate(-21.635 -125.642)" fill="#60606a"/>
    <path id="Path_3159" data-name="Path 3159" d="M817.77,596.164a.439.439,0,1,0,.42.46A.424.424,0,0,0,817.77,596.164Z" transform="translate(-229.601 -125.632)" fill="#60606a"/>
    <path id="Path_3160" data-name="Path 3160" d="M701.985,711.923a.441.441,0,1,0,.445.433A.422.422,0,0,0,701.985,711.923Z" transform="translate(-125.641 -229.597)" fill="#60606a"/>
    <path id="Path_3161" data-name="Path 3161" d="M637.531,500.67a.49.49,0,0,0,.444-.468.456.456,0,0,0-.911.023A.491.491,0,0,0,637.531,500.67Z" transform="translate(-67.722 -39.052)" fill="#60606a"/>
    <path id="Path_3162" data-name="Path 3162" d="M766.135,500.67a.489.489,0,0,0,.474-.436.455.455,0,1,0-.474.436Z" transform="translate(-183.251 -39.053)" fill="#60606a"/>
    <path id="Path_3163" data-name="Path 3163" d="M620.093,515.142a.442.442,0,1,0-.427-.455A.427.427,0,0,0,620.093,515.142Z" transform="translate(-52.097 -52.073)" fill="#60606a"/>
    <path id="Path_3164" data-name="Path 3164" d="M588.46,574.393a.466.466,0,0,0,.417-.482.443.443,0,0,0-.467-.424.451.451,0,0,0-.417.476A.457.457,0,0,0,588.46,574.393Z" transform="translate(-23.651 -105.265)" fill="#60606a"/>
    <path id="Path_3165" data-name="Path 3165" d="M798.127,532.608a.454.454,0,1,0-.479-.429A.481.481,0,0,0,798.127,532.608Z" transform="translate(-211.944 -67.738)" fill="#60606a"/>
    <path id="Path_3166" data-name="Path 3166" d="M605.608,660.319a.455.455,0,1,0,.446.464A.488.488,0,0,0,605.608,660.319Z" transform="translate(-39.054 -183.251)" fill="#60606a"/>
    <path id="Path_3167" data-name="Path 3167" d="M798.085,660.313a.455.455,0,1,0,.011.911.455.455,0,0,0-.011-.911Z" transform="translate(-211.931 -183.245)" fill="#60606a"/>
    <path id="Path_3168" data-name="Path 3168" d="M637.549,692.257a.455.455,0,1,0-.029.909.455.455,0,1,0,.029-.909Z" transform="translate(-67.736 -211.934)" fill="#60606a"/>
    <path id="Path_3169" data-name="Path 3169" d="M766.151,692.25a.455.455,0,1,0,.461.451A.488.488,0,0,0,766.151,692.25Z" transform="translate(-183.251 -211.928)" fill="#60606a"/>
    <path id="Path_3170" data-name="Path 3170" d="M605.589,531.688a.455.455,0,1,0,0,.911.455.455,0,1,0,0-.911Z" transform="translate(-39.045 -67.726)" fill="#60606a"/>
    <path id="Path_3171" data-name="Path 3171" d="M783.834,514.258a.43.43,0,0,0-.428.454.44.44,0,1,0,.88-.023A.43.43,0,0,0,783.834,514.258Z" transform="translate(-199.154 -52.073)" fill="#60606a"/>
    <path id="Path_3172" data-name="Path 3172" d="M815.04,573.918a.466.466,0,0,0,.424.475.456.456,0,0,0,.461-.436.451.451,0,0,0-.424-.469A.443.443,0,0,0,815.04,573.918Z" transform="translate(-227.564 -105.266)" fill="#60606a"/>
    <path id="Path_3173" data-name="Path 3173" d="M679.326,483.5a.442.442,0,1,0-.041-.883.443.443,0,0,0-.43.459A.456.456,0,0,0,679.326,483.5Z" transform="translate(-105.255 -23.659)" fill="#60606a"/>
    <path id="Path_3174" data-name="Path 3174" d="M724.44,482.611a.457.457,0,0,0-.469.428.462.462,0,0,0,.441.457.456.456,0,0,0,.465-.431A.445.445,0,0,0,724.44,482.611Z" transform="translate(-145.774 -23.65)" fill="#60606a"/>
    <path id="Path_3175" data-name="Path 3175" d="M588.87,619.058a.467.467,0,0,0-.423-.477.453.453,0,1,0,.423.477Z" transform="translate(-23.645 -145.765)" fill="#60606a"/>
    <path id="Path_3176" data-name="Path 3176" d="M815.47,618.579a.467.467,0,0,0-.419.48.443.443,0,1,0,.419-.48Z" transform="translate(-227.573 -145.763)" fill="#60606a"/>
    <path id="Path_3177" data-name="Path 3177" d="M620.109,678.021a.441.441,0,0,0-.029.881.441.441,0,1,0,.029-.881Z" transform="translate(-52.098 -199.149)" fill="#60606a"/>
    <path id="Path_3178" data-name="Path 3178" d="M783.883,678.009a.432.432,0,0,0-.478.414.44.44,0,1,0,.478-.414Z" transform="translate(-199.152 -199.136)" fill="#60606a"/>
    <path id="Path_3179" data-name="Path 3179" d="M679.311,709.669a.452.452,0,0,0-.441.454.447.447,0,0,0,.461.43.442.442,0,1,0-.02-.884Z" transform="translate(-105.268 -227.572)" fill="#60606a"/>
    <path id="Path_3180" data-name="Path 3180" d="M724.424,709.685a.442.442,0,1,0-.032.882.442.442,0,1,0,.032-.882Z" transform="translate(-145.758 -227.586)" fill="#60606a"/>
  </g>
</svg>
