<svg xmlns="http://www.w3.org/2000/svg" width="95.727" height="109.363" viewBox="0 0 95.727 109.363">
  <g id="Excellent_Card" transform="translate(-12215.886 14426.524)">
    <path id="Path_1651" data-name="Path 1651" d="M44.682,0c24.223,0,47.79,19.636,47.79,43.859,0,28.476-33.406,65.5-47.79,65.5S-3.37,74.712-3.254,43.859C-3.254,19.636,20.46,0,44.682,0Z" transform="translate(12219.14 -14426.524)"/>
    <g id="Group_12505" data-name="Group 12505" transform="translate(12225.217 -14401.5)">
      <path id="Path_1629" data-name="Path 1629" d="M190.667,398.315a23.117,23.117,0,0,1-22.181-16.321,1.4,1.4,0,0,1,1.34-1.819h41.683A1.4,1.4,0,0,1,212.848,382,23.117,23.117,0,0,1,190.667,398.315Z" transform="translate(-152.135 -337.994)" fill="#d6200e"/>
      <path id="Path_1654" data-name="Path 1654" d="M798.613-18439.514s15.373,1.643,23.471,6.426,10.32,9.342,12.154,14.859a31.084,31.084,0,0,1,1.1,10.086s-9.723,2-18.152-1.7a26.128,26.128,0,0,1-10.364-8.289,46.939,46.939,0,0,1-6.98-16.139c-.031-.127-1.176-5.029-1.226-5.248" transform="translate(-798.613 18439.514)" fill="#424247"/>
      <path id="Path_1655" data-name="Path 1655" d="M835.384-18439.514s-15.373,1.643-23.471,6.426-10.32,9.342-12.154,14.859a31.084,31.084,0,0,0-1.1,10.086s9.723,2,18.152-1.7a26.128,26.128,0,0,0,10.364-8.289,46.941,46.941,0,0,0,6.98-16.139c.031-.127,1.176-5.029,1.226-5.248" transform="translate(-758.319 18439.514)" fill="#424247"/>
      <g id="Group_12506" data-name="Group 12506" transform="translate(9.857 38.414)">
        <path id="Path_1642" data-name="Path 1642" d="M383.026,399.035q-.613,0-1.229-.027a27.039,27.039,0,0,1-25.078-20.214,2.1,2.1,0,0,1,4.068-1.071,22.968,22.968,0,0,0,43.811,1.932,2.1,2.1,0,1,1,3.958,1.425A27.029,27.029,0,0,1,383.026,399.035Z" transform="translate(-353.941 -375.148)" fill="#424247"/>
        <path id="Line_83" data-name="Line 83" d="M-.846,3.238a2.1,2.1,0,0,1-1.936-1.28A2.1,2.1,0,0,1-1.671-.8L2.985-2.783A2.1,2.1,0,0,1,5.744-1.671,2.1,2.1,0,0,1,4.632,1.088L-.024,3.069A2.1,2.1,0,0,1-.846,3.238Z" transform="translate(2.951 2.951)" fill="#424247"/>
        <path id="Line_84" data-name="Line 84" d="M3.615,3.64a2.094,2.094,0,0,1-.989-.248L-1.838,1.008A2.1,2.1,0,0,1-2.7-1.838,2.1,2.1,0,0,1,.143-2.7L4.607-.319A2.1,2.1,0,0,1,3.615,3.64Z" transform="translate(51.632 4.892)" fill="#424247"/>
      </g>
    </g>
  </g>
</svg>
