<svg xmlns="http://www.w3.org/2000/svg" width="34.871" height="39.871" viewBox="0 0 34.871 39.871">
  <path id="Mental_Health" data-name="Mental Health" d="M54.214,31.126A2.164,2.164,0,0,0,52.8,28.413c-5.089-1.6-7.25-10.713-7.757-14.073a3.433,3.433,0,0,0-.32-.938c-.935-1.778-4.472-2.608-4.87-2.656a.886.886,0,0,1-.836-.819,6.281,6.281,0,0,0,2.093-4.861C41.108,2.268,40.813,0,37,0h-.3C32.891,0,32.6,2.268,32.6,5.066a6.282,6.282,0,0,0,2.093,4.861.908.908,0,0,1-.836.819c-.428.048-4.489,1.006-5.035,3.076,0,0-.067.3-.108.526A34.3,34.3,0,0,1,27.024,20.9c-1.074,2.9-3,6.55-6.065,7.514a2.164,2.164,0,0,0,.625,4.228,3.721,3.721,0,0,0-2.091,3.269,3.992,3.992,0,0,0,.867,2.183,5.2,5.2,0,0,0,4.35,1.778,10.825,10.825,0,0,0,1.15-.065c1.622-.174,3.257-.436,4.838-.689.574-.092,1.147-.184,1.722-.272a36.074,36.074,0,0,1,4.1-.231h.67a36.1,36.1,0,0,1,4.1.231c.574.088,1.148.18,1.722.272,1.581.253,3.216.515,4.838.689a10.829,10.829,0,0,0,1.15.065,5.2,5.2,0,0,0,4.35-1.778,3.992,3.992,0,0,0,.867-2.183,3.721,3.721,0,0,0-2.091-3.269h.03A2.165,2.165,0,0,0,54.214,31.126Zm-25.282-.274a10.857,10.857,0,0,1-2.289.511c-.306.043-.681.1-1.179.173-.487.052-.934.121-1.346.2,2.822-1.559,5.1-4.532,6.785-8.871a25.253,25.253,0,0,1,.152,2.8C31.057,29.011,29.365,30.717,28.932,30.852Zm19.307.684c-.5-.077-.872-.136-1.179-.173C44.1,31,42.647,29.011,42.647,25.671a25.211,25.211,0,0,1,.164-2.909c1.7,4.414,4,7.43,6.858,9A14.27,14.27,0,0,0,48.239,31.536Z" transform="translate(-19.444)" fill="#60606a"/>
</svg>
