<svg xmlns="http://www.w3.org/2000/svg" width="32.697" height="29.219" viewBox="0 0 32.697 29.219">
  <path id="Notes" d="M0,25.74a3.478,3.478,0,1,1,3.479,3.479A3.478,3.478,0,0,1,0,25.74Zm12.174,2.087a1.739,1.739,0,0,1,0-3.478H30.957a1.739,1.739,0,1,1,0,3.478ZM0,14.609a3.478,3.478,0,1,1,3.479,3.479A3.478,3.478,0,0,1,0,14.609ZM12.174,16.7a1.739,1.739,0,0,1,0-3.479H30.957a1.739,1.739,0,1,1,0,3.479ZM0,3.479A3.478,3.478,0,1,1,3.479,6.957,3.478,3.478,0,0,1,0,3.479ZM12.174,5.566a1.739,1.739,0,0,1,0-3.479H30.957a1.739,1.739,0,1,1,0,3.479Z" fill="#60606a"/>
</svg>
