<svg xmlns="http://www.w3.org/2000/svg" width="35.708" height="35.736" viewBox="0 0 35.708 35.736">
  <g id="Nutrition" transform="translate(-1094.196 -230.213)">
    <path id="Path_3188" data-name="Path 3188" d="M1127.823,239.7a1.1,1.1,0,0,1-.118-.481c-.009-1.417-.009-2.859-.009-4.253q0-.9,0-1.807a.876.876,0,0,0-.985-.984h-.135l-.374,0a4.242,4.242,0,0,0-3.435,1.629v0l-.112-.079c-.474-.338-.965-.688-1.482-.989a17.744,17.744,0,0,0-9.027-2.523,19.051,19.051,0,0,0-4.557.573,17.645,17.645,0,0,0-4.107,1.618.178.178,0,0,1-.037,0,.394.394,0,0,1-.092-.012,1.275,1.275,0,0,1-.191-.075,1.177,1.177,0,0,0-.482-.135c-1.2-.01-2.4-.011-3.319-.011h-2.587c-.813,0-1.087.277-1.088,1.1q0,.967,0,1.934c0,1.787,0,3.635-.005,5.453a1.313,1.313,0,0,1-.089.489,17.809,17.809,0,0,0-1.248,9.218,17.589,17.589,0,0,0,2.888,7.654.758.758,0,0,1,.108.382c.007.512.007,1.034.006,1.539,0,.582,0,1.184.01,1.777a2.3,2.3,0,0,0,1.62,2.127,2.374,2.374,0,0,0,.724.114,2.283,2.283,0,0,0,1.824-.908,3.306,3.306,0,0,0,.22-.333,19.75,19.75,0,0,0,10.364,3.231h0a19.12,19.12,0,0,0,10.973-3.787,2.347,2.347,0,0,0,2.245,1.8h.026a2.361,2.361,0,0,0,2.343-2.356c0-.7,0-1.4,0-2.088,0-.847,0-1.723.007-2.583a1.177,1.177,0,0,1,.127-.511,17.866,17.866,0,0,0-.009-16.725Zm.411,8.371a16.044,16.044,0,0,1-.521,4.07v-8.061A14.888,14.888,0,0,1,1128.234,248.069Zm-3.564,2.5c0-.03,0-.053,0-.071l.031,0a1.466,1.466,0,0,0,.193.012c.069,0,.143,0,.226-.012a.819.819,0,0,0,.766-.841.805.805,0,0,0-.8-.817c-.217-.007-.43-.007-.592-.007h-.773c-.232,0-.241-.011-.241-.239q0-1.343,0-2.686c0-3.092,0-6.29.006-9.435a2.653,2.653,0,0,1,2.5-2.634h.046c0,.013,0,.029,0,.048-.007,3.747-.007,7.557-.006,11.241v8.49q0,3.931,0,7.862c0,.487-.24.786-.643.8h-.027a.678.678,0,0,1-.676-.727c-.006-.506,0-1.022,0-1.521q0-.327,0-.654,0-.98,0-1.96C1124.679,255.178,1124.679,252.857,1124.67,250.574Zm-12.68,13.668a16.09,16.09,0,0,1-9.82-3.351.307.307,0,0,1-.153-.3c.007-1.963.006-3.959.006-5.888v-3.378c0-1.909,0-3.882,0-5.824,0-.146.007-.158.129-.218a2.658,2.658,0,0,0,1.548-2.518c.007-3.367.005-5.938-.006-8.335a.314.314,0,0,1,.2-.344,16.165,16.165,0,0,1,6.882-2.146c.44-.032.882-.049,1.313-.049a16.169,16.169,0,0,1,9.785,3.3c.113.084.125.1.092.258a6.158,6.158,0,0,0-.139,1.284c0,1.907,0,3.845,0,5.719,0,1.974,0,4.015-.005,6.023a1.869,1.869,0,0,0,1.187,1.934c.011.176.008.354.006.542,0,.078,0,.156,0,.234v1.825c0,2.206,0,4.487.006,6.731a.435.435,0,0,1-.166.385,15.953,15.953,0,0,1-9.532,4.063c-.443.033-.886.05-1.32.05Zm-11.621-19.529c-.006.169-.006.337-.005.5v3.708q0,6.2,0,12.407v.013a2.079,2.079,0,0,1-.024.4.652.652,0,0,1-.655.549.771.771,0,0,1-.084,0,.658.658,0,0,1-.575-.69c0-1.988,0-4.01,0-5.965v-2.084h0v-.316s0-6.2,0-8.27c0-.686-.184-.92-.854-1.088a1.072,1.072,0,0,1-.827-1.145c0-1.1,0-2.225,0-3.311v-1.171q0-.6,0-1.194c0-1.037,0-2.109-.005-3.164,0-.017,0-.031,0-.043h.067a3.2,3.2,0,0,1,.539.03,3.307,3.307,0,0,1,.024.559v6.5c0,.034,0,.067,0,.1s0,.076,0,.114a.713.713,0,0,0,.181.52.526.526,0,0,0,.378.156.621.621,0,0,0,.11-.01c.261-.046.407-.3.515-.487a.61.61,0,0,0,.056-.378c0-.023,0-.046,0-.06v-1.623c0-1.755,0-3.569-.007-5.354,0-.031,0-.055,0-.073l.039,0c.149.013.3.02.461.02s.314-.006.474-.019h.009c0,.014,0,.03,0,.049-.007,1.8-.006,3.633-.006,5.4v1.478c0,.036,0,.074,0,.111a1.084,1.084,0,0,0,.036.43c.036.105.235.5.545.5a.355.355,0,0,0,.053,0,.832.832,0,0,0,.528-.4.592.592,0,0,0,.08-.4c0-.02,0-.039,0-.057v-1.269c0-1.912,0-3.89-.008-5.835v-.007h.024a3.121,3.121,0,0,1,.566.029,3.284,3.284,0,0,1,.027.6v2.291q0,2.926,0,5.853a1.1,1.1,0,0,1-1,1.291A.818.818,0,0,0,1100.369,244.713Zm-3.015.713c-.005,2.514-.005,5.07-.006,7.542q0,.909,0,1.819a15.173,15.173,0,0,1-1.338-4.558,15.962,15.962,0,0,1,.253-5.71,2.6,2.6,0,0,0,1.018.8.326.326,0,0,1,.066.036A.238.238,0,0,1,1097.354,245.426Z" transform="translate(0 0)" fill="#60606a"/>
    <path id="Path_3189" data-name="Path 3189" d="M1256.691,430.431q1.033,1.049,2.067,2.1a1.054,1.054,0,0,0,.72.37,1.011,1.011,0,0,0,.7-.355l1.421-1.443c1.516-1.538,3.083-3.128,4.607-4.711a4.446,4.446,0,0,0,.581-5.268,4.58,4.58,0,0,0-3.908-2.265,4.419,4.419,0,0,0-1.062.13,4.53,4.53,0,0,0-2.341,1.421l-.078-.087a4.41,4.41,0,0,0-3.3-1.457,4.526,4.526,0,0,0-3.072,7.85C1254.247,427.948,1255.489,429.21,1256.691,430.431Zm-3.206-8.2a2.643,2.643,0,0,1,2.45-1.69c.057,0,.115,0,.171,0a2.712,2.712,0,0,1,2.488,1.528c.021.038.041.078.061.118a.893.893,0,0,0,.8.619h.013a.92.92,0,0,0,.835-.65c.017-.036.035-.072.053-.107a2.821,2.821,0,0,1,2.517-1.518,2.973,2.973,0,0,1,.4.027,2.826,2.826,0,0,1,2.368,2.221,2.6,2.6,0,0,1-.633,2.446c-1.377,1.421-2.788,2.856-4.152,4.244l-1.381,1.406-.642-.637c-.624-.618-1.268-1.257-1.891-1.89-1.061-1.078-2.016-2.052-2.955-3.057A2.642,2.642,0,0,1,1253.485,422.234Z" transform="translate(-147.422 -176.732)" fill="#60606a"/>
    <path id="Path_3190" data-name="Path 3190" d="M1249.189,628.461c.161-.165.326-.335.491-.5a.773.773,0,0,0,.266-.549.587.587,0,0,0-.227-.43.614.614,0,0,0-.4-.159.737.737,0,0,0-.558.328c-.017.022-.035.042-.054.062l-.038.042a11.62,11.62,0,0,1-15.706,1.751c-.311-.227-.611-.493-.9-.75-.126-.112-.252-.223-.38-.333a.688.688,0,0,0-.451-.191.582.582,0,0,0-.426.195.592.592,0,0,0,.037.886l.085.086c.054.054.109.11.169.165a12.765,12.765,0,0,0,8.679,3.452h.008a12.605,12.605,0,0,0,8.083-2.808A15.16,15.16,0,0,0,1249.189,628.461Z" transform="translate(-127.815 -371.57)" fill="#60606a"/>
    <path id="Path_3191" data-name="Path 3191" d="M1267.693,312.1h.031a.588.588,0,0,0,.341-.133c.017-.012.038-.027.049-.033a12.334,12.334,0,0,1,5.862-1.591,12.12,12.12,0,0,1,6.209,1.832,8.855,8.855,0,0,1,.849.6c.123.094.25.191.378.285a.733.733,0,0,0,.432.158.575.575,0,0,0,.448-.223.608.608,0,0,0,.147-.461.665.665,0,0,0-.277-.452c-.013-.01-.025-.021-.037-.031l-.055-.047a12.53,12.53,0,0,0-7.4-2.871h-.071a13.758,13.758,0,0,0-6.844,1.584l-.071.037a1.907,1.907,0,0,0-.479.321.66.66,0,0,0-.1.759A.808.808,0,0,0,1267.693,312.1Z" transform="translate(-161.908 -73.942)" fill="#60606a"/>
  </g>
</svg>
