<svg xmlns="http://www.w3.org/2000/svg" width="43.373" height="28.142" viewBox="0 0 43.373 28.142">
  <g id="Training" transform="translate(-271.101 -187.012)">
    <path id="Path_3143" data-name="Path 3143" d="M366.484,217.68l-2.516.565v-5.53l2.516.565Z" transform="translate(-52.01 -14.395)" fill="#60606a"/>
    <path id="Path_3144" data-name="Path 3144" d="M299.661,198.363h12.221c0-2.848-.009-5.606,0-8.364.011-2.526.536-3.063,2.86-2.98,1.77.064,2.309.564,2.328,2.4.038,3.661.012,7.323.012,10.985,0,4.028.017,8.056-.007,12.084-.012,2.135-.524,2.637-2.528,2.656-2.131.02-2.646-.487-2.663-2.734-.021-2.78,0-5.561,0-8.523H299.661c0,2.814.02,5.711-.007,8.606-.02,2.174-.592,2.7-2.751,2.651-1.891-.042-2.43-.547-2.435-2.52q-.032-11.535,0-23.07c.006-2.041.585-2.551,2.635-2.541,2.022.01,2.531.5,2.551,2.624C299.682,192.487,299.661,195.331,299.661,198.363Z" transform="translate(-13.078)" fill="#60606a"/>
    <path id="Path_3145" data-name="Path 3145" d="M284.862,195.031V216.11c-.838,0-1.608.037-2.373-.008a1.786,1.786,0,0,1-1.866-1.97q-.017-8.559,0-17.117a1.836,1.836,0,0,1,2.087-1.982C283.361,195.026,284.007,195.031,284.862,195.031Z" transform="translate(-5.327 -4.49)" fill="#60606a"/>
    <path id="Path_3146" data-name="Path 3146" d="M350.25,195.034h2.075a1.828,1.828,0,0,1,2.089,1.974q.035,8.558,0,17.115a1.843,1.843,0,0,1-2.077,2c-.647.01-1.295,0-2.09,0Z" transform="translate(-44.328 -4.493)" fill="#60606a"/>
    <path id="Path_3147" data-name="Path 3147" d="M271.1,213.164l2.306-.148v5.253l-2.306-.123Z" transform="translate(0 -14.564)" fill="#60606a"/>
  </g>
</svg>
