<svg xmlns="http://www.w3.org/2000/svg" xmlns:xlink="http://www.w3.org/1999/xlink" width="177.014" height="193.683" viewBox="0 0 177.014 193.683">
  <defs>
    <filter id="Path_1651" x="0" y="0" width="177.014" height="193.683" filterUnits="userSpaceOnUse">
      <feOffset dy="3" input="SourceAlpha"/>
      <feGaussianBlur stdDeviation="10" result="blur"/>
      <feFlood flood-color="#d9d9d9" flood-opacity="0.502"/>
      <feComposite operator="in" in2="blur"/>
      <feComposite in="SourceGraphic"/>
    </filter>
  </defs>
  <g id="Excellent" transform="translate(-12185.886 14453.524)">
    <g transform="matrix(1, 0, 0, 1, 12185.89, -14453.52)" filter="url(#Path_1651)">
      <path id="Path_1651-2" data-name="Path 1651" d="M55.342,0C84.951,0,113.76,24,113.76,53.612c0,34.809-40.835,80.071-58.417,80.071S-3.4,91.326-3.254,53.612C-3.254,24,25.733,0,55.342,0Z" transform="translate(33.25 27)"/>
    </g>
    <g id="Group_12505" data-name="Group 12505" transform="translate(12220.588 -14415.201)">
      <path id="Path_1629" data-name="Path 1629" d="M195.614,402.349A28.258,28.258,0,0,1,168.5,382.4a1.715,1.715,0,0,1,1.638-2.223H221.09a1.714,1.714,0,0,1,1.637,2.224A28.258,28.258,0,0,1,195.614,402.349Z" transform="translate(-141.81 -309.348)" fill="#d6200e"/>
      <path id="Path_1654" data-name="Path 1654" d="M798.613-18439.514s18.791,2.008,28.69,7.854,12.614,11.42,14.857,18.164a37.992,37.992,0,0,1,1.342,12.328s-11.885,2.439-22.189-2.072a31.939,31.939,0,0,1-12.669-10.131c-1.766-2.266-6.018-9.4-8.532-19.729-.037-.154-1.437-6.148-1.5-6.414" transform="translate(-791.909 18458.779)" fill="#424247"/>
      <path id="Path_1655" data-name="Path 1655" d="M843.561-18439.514s-18.791,2.008-28.69,7.854-12.614,11.42-14.857,18.164a37.993,37.993,0,0,0-1.342,12.328s11.885,2.439,22.189-2.072a31.94,31.94,0,0,0,12.669-10.131c1.766-2.266,6.018-9.4,8.532-19.729.037-.154,1.438-6.148,1.5-6.414" transform="translate(-742.656 18458.779)" fill="#424247"/>
      <g id="Group_12506" data-name="Group 12506" transform="translate(21.703 69.173)">
        <path id="Path_1642" data-name="Path 1642" d="M388.892,404.123q-.749,0-1.5-.033a33.052,33.052,0,0,1-30.654-24.709,2.571,2.571,0,0,1,4.972-1.309,28.075,28.075,0,0,0,53.554,2.361,2.571,2.571,0,0,1,4.838,1.741A33.04,33.04,0,0,1,388.892,404.123Z" transform="translate(-356.29 -377.875)" fill="#424247"/>
        <path id="Line_83" data-name="Line 83" d="M-.378,4.614A2.572,2.572,0,0,1-2.745,3.049,2.571,2.571,0,0,1-1.386-.323L4.305-2.745A2.571,2.571,0,0,1,7.678-1.386,2.571,2.571,0,0,1,6.319,1.986L.627,4.408A2.563,2.563,0,0,1-.378,4.614Z" fill="#424247"/>
        <path id="Line_84" data-name="Line 84" d="M5.075,5.105a2.559,2.559,0,0,1-1.209-.3L-1.59,1.888A2.571,2.571,0,0,1-2.647-1.59,2.571,2.571,0,0,1,.831-2.647L6.288.266A2.571,2.571,0,0,1,5.075,5.105Z" transform="translate(59.507 2.372)" fill="#424247"/>
      </g>
    </g>
  </g>
</svg>
