<svg xmlns="http://www.w3.org/2000/svg" xmlns:xlink="http://www.w3.org/1999/xlink" width="177.014" height="193.683" viewBox="0 0 177.014 193.683">
  <defs>
    <filter id="Path_1651" x="0" y="0" width="177.014" height="193.683" filterUnits="userSpaceOnUse">
      <feOffset dy="3" input="SourceAlpha"/>
      <feGaussianBlur stdDeviation="10" result="blur"/>
      <feFlood flood-color="#d9d9d9" flood-opacity="0.502"/>
      <feComposite operator="in" in2="blur"/>
      <feComposite in="SourceGraphic"/>
    </filter>
  </defs>
  <g id="Mad" transform="translate(25.034 31.392)">
    <g id="Group_12509" data-name="Group 12509" transform="translate(2.473)">
      <g id="Group_12508" data-name="Group 12508" transform="translate(-12213.449 14422.133)">
        <g transform="matrix(1, 0, 0, 1, 12185.94, -14453.52)" filter="url(#Path_1651)">
          <path id="Path_1651-2" data-name="Path 1651" d="M55.342,0C84.951,0,113.76,24,113.76,53.612c0,34.809-40.835,80.071-58.417,80.071S-3.4,91.326-3.254,53.612C-3.254,24,25.733,0,55.342,0Z" transform="translate(33.25 27)"/>
        </g>
        <g id="Group_12505" data-name="Group 12505" transform="translate(12220.588 -14415.201)">
          <path id="Path_1654" data-name="Path 1654" d="M798.613-18439.514s18.791,2.008,28.69,7.854,12.614,11.42,14.857,18.164a37.992,37.992,0,0,1,1.342,12.328s-11.885,2.439-22.189-2.072a31.939,31.939,0,0,1-12.669-10.131c-1.766-2.266-6.018-9.4-8.532-19.729-.037-.154-1.437-6.148-1.5-6.414" transform="translate(-791.909 18458.779)" fill="#424247"/>
          <path id="Path_1655" data-name="Path 1655" d="M843.561-18439.514s-18.791,2.008-28.69,7.854-12.614,11.42-14.857,18.164a37.993,37.993,0,0,0-1.342,12.328s11.885,2.439,22.189-2.072a31.94,31.94,0,0,0,12.669-10.131c1.766-2.266,6.018-9.4,8.532-19.729.037-.154,1.438-6.148,1.5-6.414" transform="translate(-742.656 18458.779)" fill="#424247"/>
        </g>
      </g>
    </g>
    <path id="Path_3197" data-name="Path 3197" d="M191.464,380.176c-10.6,0-19.831,4.944-22.975,12.3a.832.832,0,0,0,.218.941,1.681,1.681,0,0,0,1.17.43h43.175a1.68,1.68,0,0,0,1.17-.43.831.831,0,0,0,.217-.941C211.295,385.12,202.062,380.176,191.464,380.176Z" transform="translate(-128.886 -297.635)" fill="#d6200e"/>
    <path id="Path_1636" data-name="Path 1636" d="M806.467,393.094a3.256,3.256,0,0,1-1.941-.641,33.272,33.272,0,0,0-37.625-1.285,3.27,3.27,0,0,1-3.521-5.511,39.812,39.812,0,0,1,45.035,1.537,3.27,3.27,0,0,1-1.947,5.9Z" transform="translate(-722.332 -302.717)" fill="#424247"/>
    <path id="Path_1636-2" data-name="Path 1636" d="M799.4,390.19a2.866,2.866,0,0,1-1.634-.5,29.579,29.579,0,0,0-31.659-1.012,2.866,2.866,0,0,1-3.8-.784,2.48,2.48,0,0,1,.837-3.557,35.394,35.394,0,0,1,37.894,1.211,2.47,2.47,0,0,1,.577,3.6A2.815,2.815,0,0,1,799.4,390.19Z" transform="matrix(0.819, -0.574, 0.574, 0.819, -783.772, 164.13)" fill="#424247"/>
    <path id="Path_1636-3" data-name="Path 1636" d="M37.527,0a2.866,2.866,0,0,0-1.634.5A29.037,29.037,0,0,1,19.278,5.621a29.292,29.292,0,0,1-15.044-4.1,2.866,2.866,0,0,0-3.8.784A2.48,2.48,0,0,0,1.27,5.858a35.064,35.064,0,0,0,18.007,4.914A34.755,34.755,0,0,0,39.165,4.647a2.47,2.47,0,0,0,.577-3.6A2.814,2.814,0,0,0,37.527,0Z" transform="matrix(-0.819, -0.574, 0.574, -0.819, 63.937, 46.765)" fill="#424247"/>
  </g>
</svg>
