<svg xmlns="http://www.w3.org/2000/svg" xmlns:xlink="http://www.w3.org/1999/xlink" width="177.014" height="193.683" viewBox="0 0 177.014 193.683">
  <defs>
    <filter id="Path_1651" x="0" y="0" width="177.014" height="193.683" filterUnits="userSpaceOnUse">
      <feOffset dy="3" input="SourceAlpha"/>
      <feGaussianBlur stdDeviation="10" result="blur"/>
      <feFlood flood-color="#d9d9d9" flood-opacity="0.502"/>
      <feComposite operator="in" in2="blur"/>
      <feComposite in="SourceGraphic"/>
    </filter>
  </defs>
  <g id="Sad" transform="translate(25.034 31.392)">
    <g id="Group_12509" data-name="Group 12509" transform="translate(2.473)">
      <g id="Group_12508" data-name="Group 12508" transform="translate(-12213.449 14422.133)">
        <g transform="matrix(1, 0, 0, 1, 12185.94, -14453.52)" filter="url(#Path_1651)">
          <path id="Path_1651-2" data-name="Path 1651" d="M55.342,0C84.951,0,113.76,24,113.76,53.612c0,34.809-40.835,80.071-58.417,80.071S-3.4,91.326-3.254,53.612C-3.254,24,25.733,0,55.342,0Z" transform="translate(33.25 27)"/>
        </g>
        <g id="Group_12505" data-name="Group 12505" transform="translate(12220.588 -14415.201)">
          <path id="Path_1654" data-name="Path 1654" d="M798.613-18439.514s18.791,2.008,28.69,7.854,12.614,11.42,14.857,18.164a37.992,37.992,0,0,1,1.342,12.328s-11.885,2.439-22.189-2.072a31.939,31.939,0,0,1-12.669-10.131c-1.766-2.266-6.018-9.4-8.532-19.729-.037-.154-1.437-6.148-1.5-6.414" transform="translate(-791.909 18458.779)" fill="#424247"/>
          <path id="Path_1655" data-name="Path 1655" d="M843.561-18439.514s-18.791,2.008-28.69,7.854-12.614,11.42-14.857,18.164a37.993,37.993,0,0,0-1.342,12.328s11.885,2.439,22.189-2.072a31.94,31.94,0,0,0,12.669-10.131c1.766-2.266,6.018-9.4,8.532-19.729.037-.154,1.438-6.148,1.5-6.414" transform="translate(-742.656 18458.779)" fill="#424247"/>
        </g>
      </g>
    </g>
    <path id="Path_1636" data-name="Path 1636" d="M806.467,393.094a3.256,3.256,0,0,1-1.941-.641,33.272,33.272,0,0,0-37.625-1.285,3.27,3.27,0,0,1-3.521-5.511,39.812,39.812,0,0,1,45.035,1.537,3.27,3.27,0,0,1-1.947,5.9Z" transform="translate(-722.332 -292.717)" fill="#d6200e"/>
    <path id="Path_1656" data-name="Path 1656" d="M929.328,376.253l-3.608-6.773-3.609,6.773a5,5,0,0,0-.878,2.658,4.487,4.487,0,0,0,8.973,0A4.9,4.9,0,0,0,929.328,376.253Z" transform="matrix(0.914, 0.407, -0.407, 0.914, -659.967, -646.05)" fill="#509ca6"/>
    <path id="Path_1659" data-name="Path 1659" d="M8.1,7.144,4.487,13.917.878,7.144A5,5,0,0,1,0,4.486a4.487,4.487,0,0,1,8.973,0A4.9,4.9,0,0,1,8.1,7.144Z" transform="matrix(-0.914, 0.407, -0.407, -0.914, 98.153, 78.325)" fill="#509ca6"/>
    <path id="Path_1657" data-name="Path 1657" d="M926.741,374.088l-2.455-4.608-2.455,4.608a3.4,3.4,0,0,0-.6,1.808,3.053,3.053,0,0,0,6.106,0A3.332,3.332,0,0,0,926.741,374.088Z" transform="matrix(0.875, -0.485, 0.485, 0.875, -947.619, 198.886)" fill="#509ca6"/>
    <path id="Path_1658" data-name="Path 1658" d="M5.508,4.861,3.053,9.469.6,4.861A3.4,3.4,0,0,1,0,3.053a3.053,3.053,0,0,1,6.106,0A3.332,3.332,0,0,1,5.508,4.861Z" transform="matrix(-0.875, -0.485, 0.485, -0.875, 82.004, 83.125)" fill="#509ca6"/>
  </g>
</svg>
